<svg width="42" height="41" viewBox="0 0 42 41" fill="none" xmlns="http://www.w3.org/2000/svg">
<path d="M0.81781 20.4653C0.81781 31.4855 9.8145 40.419 20.9125 40.419C32.0104 40.419 41.0071 31.4855 41.0071 20.4653C41.0071 9.4452 32.0104 0.511627 20.9125 0.511627C9.8145 0.511627 0.81781 9.4452 0.81781 20.4653Z" fill="#D9D9D9"/>
<path fill-rule="evenodd" clip-rule="evenodd" d="M20.8817 10.7279C15.3511 10.7279 10.8651 15.1824 10.8651 20.6743C10.8651 25.0678 13.7534 28.79 17.6863 30.1325C18.1779 30.1935 18.3622 29.8884 18.3622 29.6443C18.3622 29.4002 18.3622 28.79 18.3622 27.9357C15.5969 28.5459 14.9824 26.5933 14.9824 26.5933C14.5522 25.4339 13.8763 25.1288 13.8763 25.1288C12.9545 24.5186 13.9377 24.5186 13.9377 24.5186C14.9209 24.5796 15.474 25.5559 15.474 25.5559C16.3958 27.0814 17.8092 26.6543 18.3622 26.4102C18.4237 25.739 18.7309 25.3118 18.9767 25.0678C16.7645 24.8237 14.4293 23.9694 14.4293 20.1251C14.4293 19.0267 14.798 18.1724 15.474 17.4402C15.4126 17.2571 15.0438 16.2198 15.5969 14.8773C15.5969 14.8773 16.4572 14.6332 18.3622 15.9147C19.1611 15.6706 20.0214 15.6096 20.8817 15.6096C21.7421 15.6096 22.6024 15.7316 23.4013 15.9147C25.3063 14.6332 26.1666 14.8773 26.1666 14.8773C26.7196 16.2198 26.3509 17.2571 26.2895 17.5012C26.904 18.1724 27.3342 19.0877 27.3342 20.1861C27.3342 24.0304 24.999 24.8237 22.7867 25.0678C23.1555 25.3729 23.4627 25.9831 23.4627 26.8984C23.4627 28.2408 23.4627 29.2782 23.4627 29.6443C23.4627 29.8884 23.6471 30.1935 24.1387 30.1325C28.133 28.79 30.9598 25.0678 30.9598 20.6743C30.8983 15.1824 26.4124 10.7279 20.8817 10.7279Z" fill="#090808"/>
<path d="M40.5071 20.4653C40.5071 31.206 31.7376 39.919 20.9125 39.919C10.0873 39.919 1.31781 31.206 1.31781 20.4653C1.31781 9.72466 10.0873 1.01163 20.9125 1.01163C31.7376 1.01163 40.5071 9.72466 40.5071 20.4653Z" stroke="#66A1F6"/>
</svg>
