<svg width="236" height="236" viewBox="0 0 236 236" fill="none" xmlns="http://www.w3.org/2000/svg">
<g id="Subtract" filter="url(#filter0_d_3_159)">
<path fill-rule="evenodd" clip-rule="evenodd" d="M102.944 0.985474C104.964 0.718994 107 0.505249 109.052 0.345947L208.323 44.4364C209.571 46.0554 210.778 47.709 211.94 49.3954L102.944 0.985474ZM200.808 35.6486C203.007 37.9718 205.109 40.3875 207.108 42.8892L111.016 0.210449C113.326 0.0708008 115.655 0 118 0C118.872 0 119.743 0.00976562 120.61 0.0292969L200.808 35.6486ZM80.5418 6.29675C81.9814 5.79614 83.434 5.32361 84.8992 4.87976L221.148 65.394C221.8 66.7738 222.424 68.1687 223.021 69.5781L80.5418 6.29675ZM217.503 58.3245C218.567 60.2213 219.578 62.1516 220.534 64.1135L86.2605 4.47668C88.345 3.87366 90.4541 3.32849 92.5859 2.84314L217.503 58.3245ZM189.421 25.141C192.812 27.87 196.044 30.7891 199.099 33.8821L123.062 0.110352C127.442 0.301758 131.758 0.740234 135.996 1.41235L189.421 25.141ZM212.917 50.8372C214.252 52.8395 215.526 54.8865 216.735 56.9753L94.1022 2.50879C96.4482 2.00842 98.8208 1.5802 101.218 1.22656L212.917 50.8372ZM63.3565 13.925C64.4978 13.3005 65.6509 12.6951 66.8154 12.1089L227.919 83.6621C228.264 84.915 228.588 86.1765 228.891 87.4463L63.3565 13.925ZM72.795 9.31396C71.1381 10.0304 69.5015 10.785 67.8865 11.5768L227.595 82.5106C227.097 80.7733 226.559 79.053 225.981 77.3507L72.795 9.31396ZM79.2798 6.74402C77.4829 7.39282 75.707 8.08557 73.9534 8.8208L225.57 76.1603C224.935 74.3572 224.257 72.575 223.536 70.8147L79.2798 6.74402ZM139.751 2.07275C157.003 5.40564 172.869 12.6279 186.399 22.791L139.751 2.07275ZM37.7203 33.0607C38.503 32.2843 39.2968 31.5193 40.1016 30.7657L231.983 115.989C231.964 117.095 231.929 118.197 231.879 119.295L37.7203 33.0607ZM44.1789 27.1267C43.0453 28.0909 41.9308 29.077 40.836 30.0842L231.996 114.987C231.999 114.658 232 114.329 232 114C232 112.837 231.983 111.678 231.948 110.523L44.1789 27.1267ZM48.5273 23.6073C47.3194 24.537 46.1307 25.4904 44.9619 26.4667L231.913 109.5C231.853 107.971 231.764 106.451 231.645 104.938L48.5273 23.6073ZM231.558 103.892L49.3625 22.9706C50.302 22.2611 51.2529 21.5657 52.2148 20.8849L231.195 100.378C231.333 101.544 231.455 102.715 231.558 103.892ZM57.1079 17.6075C55.7506 18.4668 54.4127 19.3539 53.095 20.2681L231.062 99.3113C230.857 97.714 230.618 96.127 230.348 94.551L57.1079 17.6075ZM62.3467 14.4844C60.8943 15.2983 59.4616 16.1431 58.0494 17.0179L230.154 93.4573C229.855 91.8158 229.521 90.1866 229.153 88.5706L62.3467 14.4844ZM221.613 161.609C222.178 160.381 222.722 159.141 223.244 157.891L14.875 65.3446C14.2974 66.5667 13.7409 67.8005 13.2059 69.046L221.613 161.609ZM225.064 153.248C224.596 154.523 224.107 155.786 223.596 157.039L15.2721 64.5132C15.8618 63.2913 16.4726 62.0815 17.1042 60.8844L225.064 153.248ZM226.681 148.516C226.269 149.815 225.835 151.103 225.378 152.38L17.5383 60.0695C18.183 58.8711 18.8484 57.6855 19.5342 56.5134L226.681 148.516ZM216.584 171.284C216.066 172.173 215.536 173.056 214.995 173.93L8.49066 82.2124C8.77748 81.2225 9.07736 80.2382 9.39011 79.2596L216.584 171.284ZM217.047 170.482L9.67563 78.3788C10.1005 77.0861 10.5478 75.8036 11.0172 74.5317L219.005 166.908C218.373 168.112 217.72 169.303 217.047 170.482ZM219.43 166.089L11.3401 73.6674C11.8202 72.3986 12.3223 71.1405 12.8458 69.8938L221.225 162.444C220.648 163.671 220.049 164.887 219.43 166.089ZM231.83 120.281C231.752 121.723 231.647 123.157 231.515 124.584L34.0447 36.8789C35.0178 35.8201 36.0107 34.7798 37.0227 33.7585L231.83 120.281ZM230.279 133.845C230.461 132.807 230.629 131.764 230.783 130.717L29.9904 41.5359C29.3187 42.3507 28.6582 43.1749 28.009 44.0084L230.279 133.845ZM30.6022 40.7999L230.918 129.769C231.112 128.371 231.28 126.965 231.422 125.551L33.3909 37.5963C32.4419 38.6466 31.5121 39.7147 30.6022 40.7999ZM226.958 147.632C227.261 146.649 227.551 145.66 227.828 144.666L21.6244 53.0812C21.0733 53.9512 20.5337 54.8292 20.0057 55.715L226.958 147.632ZM22.1261 52.2963L228.075 143.767C228.432 142.444 228.765 141.111 229.075 139.769L24.4218 48.8738C23.6366 50 22.8712 51.141 22.1261 52.2963ZM24.9619 48.1058L229.283 138.854C229.583 137.504 229.859 136.146 230.111 134.779L27.4295 44.7588C26.5872 45.8589 25.7645 46.9747 24.9619 48.1058ZM34.7791 191.913L115.992 227.983C111.992 227.914 108.043 227.639 104.154 227.168L43.351 200.162C40.3525 197.562 37.4911 194.808 34.7791 191.913ZM45.8831 202.295C61.3537 214.946 80.2105 223.611 100.886 226.724L45.8831 202.295ZM33.2175 190.211L118.299 228C121.375 227.992 124.422 227.862 127.436 227.615L27.3795 183.176C29.2323 185.599 31.1802 187.946 33.2175 190.211ZM129.322 227.445L26.2427 181.663C25.0684 180.073 23.9344 178.452 22.8422 176.8L135.213 226.709C133.265 227.004 131.301 227.25 129.322 227.445ZM136.884 226.443L21.9199 175.383C20.6554 173.408 19.4502 171.391 18.3067 169.335L143.794 225.07C141.516 225.596 139.212 226.055 136.884 226.443ZM145.27 224.718L17.5776 168.004C16.5667 166.128 15.6069 164.22 14.6999 162.283L151.442 223.016C149.408 223.639 147.35 224.207 145.27 224.718ZM152.772 222.599L14.1161 161.016C13.4966 159.649 12.9031 158.268 12.3366 156.873L157.037 221.141C155.628 221.654 154.206 222.141 152.772 222.599ZM157.041 221.139L157.058 220.143L11.8473 155.648C11.1617 153.902 10.5179 152.135 9.91725 150.348L162.08 217.93L162.097 216.93L9.52751 149.167C8.98006 147.477 8.47099 145.77 8.00134 144.047L167.118 214.718L167.136 213.718L7.69618 142.904C7.37093 141.659 7.06618 140.406 6.78233 139.145L171.15 212.148L171.167 211.148L6.53683 138.028C6.19221 136.422 5.88142 134.803 5.60527 133.172L176.189 208.936L176.206 207.936L5.42657 132.085C5.17676 130.518 4.95889 128.94 4.77365 127.352L181.227 205.723L181.245 204.723L4.65494 126.292C4.53059 125.132 4.42365 123.967 4.33435 122.797L185.259 203.153L185.276 202.153L4.25967 121.756C4.15858 120.251 4.08669 118.738 4.04456 117.218L190.297 199.941L190.315 198.942L4.0208 116.2C4.00696 115.468 4 114.735 4 114C4 113.251 4.00723 112.503 4.02162 111.757L195.336 196.729L195.354 195.729L4.04515 110.76C4.07588 109.659 4.12222 108.562 4.18394 107.469L199.153 194.063C187.408 205.967 173.064 215.299 157.041 221.139ZM199.373 193.84L199.385 193.159L4.24356 106.488C4.33691 105.053 4.45682 103.625 4.60278 102.205L202.773 190.221C201.666 191.452 200.532 192.658 199.373 193.84ZM203.417 189.5L4.70578 101.243C4.86255 99.8352 5.04497 98.4349 5.25255 97.043L206.164 186.276C205.268 187.368 204.352 188.443 203.417 189.5ZM206.766 185.536L5.39729 96.0995C5.56178 95.0565 5.7404 94.0182 5.93297 92.9849L208.716 183.05C208.078 183.888 207.427 184.717 206.766 185.536ZM209.287 182.296L6.11012 92.0558C6.37552 90.6947 6.66513 89.3423 6.97849 87.999L211.714 178.931C210.925 180.068 210.116 181.189 209.287 182.296ZM212.245 178.159L7.19511 87.0874C7.51851 85.7512 7.86545 84.4242 8.23547 83.1068L214.502 174.719C213.77 175.88 213.017 177.027 212.245 178.159Z" fill="url(#paint0_linear_3_159)" fill-opacity="0.7" shape-rendering="crispEdges"/>
</g>
<defs>
<filter id="filter0_d_3_159" x="0" y="0" width="236" height="236" filterUnits="userSpaceOnUse" color-interpolation-filters="sRGB">
<feFlood flood-opacity="0" result="BackgroundImageFix"/>
<feColorMatrix in="SourceAlpha" type="matrix" values="0 0 0 0 0 0 0 0 0 0 0 0 0 0 0 0 0 0 127 0" result="hardAlpha"/>
<feOffset dy="4"/>
<feGaussianBlur stdDeviation="2"/>
<feComposite in2="hardAlpha" operator="out"/>
<feColorMatrix type="matrix" values="0 0 0 0 0 0 0 0 0 0 0 0 0 0 0 0 0 0 0.25 0"/>
<feBlend mode="normal" in2="BackgroundImageFix" result="effect1_dropShadow_3_159"/>
<feBlend mode="normal" in="SourceGraphic" in2="effect1_dropShadow_3_159" result="shape"/>
</filter>
<linearGradient id="paint0_linear_3_159" x1="65.5" y1="15.5" x2="175.5" y2="220.5" gradientUnits="userSpaceOnUse">
<stop offset="0.114583" stop-color="#FF8151"/>
<stop offset="0.479167" stop-color="#2C7CEF"/>
<stop offset="0.817708" stop-color="#CBCBCB"/>
</linearGradient>
</defs>
</svg>
