<svg width="41" height="41" viewBox="0 0 41 41" fill="none" xmlns="http://www.w3.org/2000/svg">
<path d="M0.134918 20.4653C0.134918 31.4855 9.1316 40.419 20.2296 40.419C31.3275 40.419 40.3242 31.4855 40.3242 20.4653C40.3242 9.4452 31.3275 0.511627 20.2296 0.511627C9.1316 0.511627 0.134918 9.4452 0.134918 20.4653Z" fill="#D9D9D9"/>
<path d="M14.7036 30.4422H10.4334V17.0981H14.7036V30.4422ZM12.5685 15.2275C11.187 15.2275 10.1823 14.2298 10.1823 12.858C10.1823 11.4861 11.3126 10.4885 12.5685 10.4885C13.95 10.4885 14.9547 11.4861 14.9547 12.858C14.9547 14.2298 13.95 15.2275 12.5685 15.2275ZM30.2769 30.4422H26.0068V23.209C26.0068 21.0889 25.1276 20.4653 23.8717 20.4653C22.6158 20.4653 21.3599 21.463 21.3599 23.3337V30.4422H17.0898V17.0981H21.1087V18.9688C21.4855 18.0958 22.9926 16.724 25.1276 16.724C27.5139 16.724 30.0257 18.0958 30.0257 22.2113V30.4422H30.2769Z" fill="#0F0E0E"/>
<path d="M39.8242 20.4653C39.8242 31.206 31.0547 39.919 20.2296 39.919C9.40442 39.919 0.634918 31.206 0.634918 20.4653C0.634918 9.72466 9.40442 1.01163 20.2296 1.01163C31.0547 1.01163 39.8242 9.72466 39.8242 20.4653Z" stroke="#66A1F6"/>
</svg>
