<svg width="42" height="42" viewBox="0 0 42 42" fill="none" xmlns="http://www.w3.org/2000/svg">
<path d="M0.500732 20.4653C0.500732 31.4854 9.49742 40.419 20.5954 40.419C31.6934 40.419 40.69 31.4854 40.69 20.4653C40.69 9.44517 31.6934 0.511597 20.5954 0.511597C9.49742 0.511597 0.500732 9.44517 0.500732 20.4653Z" fill="#D9D9D9"/>
<path d="M20.5954 11.985C23.3584 11.985 23.7352 11.985 24.8655 11.985C25.8702 11.985 26.3726 12.2344 26.7494 12.3591C27.2518 12.6085 27.6285 12.7332 28.0053 13.1074C28.3821 13.4815 28.6333 13.8556 28.7589 14.3545C28.8844 14.7286 29.01 15.2275 29.1356 16.2251C29.1356 17.3475 29.1356 17.597 29.1356 20.4653C29.1356 23.3336 29.1356 23.5831 29.1356 24.7055C29.1356 25.7031 28.8844 26.202 28.7589 26.5761C28.5077 27.075 28.3821 27.4491 28.0053 27.8232C27.6285 28.1974 27.2518 28.4468 26.7494 28.5715C26.3726 28.6962 25.8702 28.8209 24.8655 28.9456C23.7352 28.9456 23.484 28.9456 20.5954 28.9456C17.7068 28.9456 17.4556 28.9456 16.3253 28.9456C15.3206 28.9456 14.8182 28.6962 14.4414 28.5715C13.939 28.3221 13.5623 28.1974 13.1855 27.8232C12.8087 27.4491 12.5575 27.075 12.4319 26.5761C12.3064 26.202 12.1808 25.7031 12.0552 24.7055C12.0552 23.5831 12.0552 23.3336 12.0552 20.4653C12.0552 17.597 12.0552 17.3475 12.0552 16.2251C12.0552 15.2275 12.3064 14.7286 12.4319 14.3545C12.6831 13.8556 12.8087 13.4815 13.1855 13.1074C13.5623 12.7332 13.939 12.4838 14.4414 12.3591C14.8182 12.2344 15.3206 12.1097 16.3253 11.985C17.4556 11.985 17.8324 11.985 20.5954 11.985ZM20.5954 10.1143C17.7068 10.1143 17.4556 10.1143 16.3253 10.1143C15.195 10.1143 14.4414 10.3637 13.8135 10.6132C13.1855 10.8626 12.5575 11.2367 11.9296 11.8603C11.3016 12.4838 11.0504 12.9827 10.6737 13.7309C10.4225 14.3545 10.2969 15.1027 10.1713 16.2251C10.1713 17.3475 10.1713 17.7217 10.1713 20.4653C10.1713 23.3336 10.1713 23.5831 10.1713 24.7055C10.1713 25.8279 10.4225 26.5761 10.6737 27.1997C10.9248 27.8232 11.3016 28.4468 11.9296 29.0703C12.5575 29.6939 13.0599 29.9433 13.8135 30.3174C14.4414 30.5669 15.195 30.6916 16.3253 30.8163C17.4556 30.8163 17.8324 30.8163 20.5954 30.8163C23.3584 30.8163 23.7352 30.8163 24.8655 30.8163C25.9958 30.8163 26.7494 30.5669 27.3773 30.3174C28.0053 30.068 28.6333 29.6939 29.2612 29.0703C29.8892 28.4468 30.1404 27.9479 30.5171 27.1997C30.7683 26.5761 30.8939 25.8279 31.0195 24.7055C31.0195 23.5831 31.0195 23.2089 31.0195 20.4653C31.0195 17.7217 31.0195 17.3475 31.0195 16.2251C31.0195 15.1027 30.7683 14.3545 30.5171 13.7309C30.266 13.1074 29.8892 12.4838 29.2612 11.8603C28.6333 11.2367 28.1309 10.9873 27.3773 10.6132C26.7494 10.3637 25.9958 10.239 24.8655 10.1143C23.7352 10.1143 23.484 10.1143 20.5954 10.1143Z" fill="#0C0B0B"/>
<path d="M20.5954 15.1027C17.5812 15.1027 15.195 17.4722 15.195 20.4653C15.195 23.4584 17.5812 25.8279 20.5954 25.8279C23.6096 25.8279 25.9958 23.4584 25.9958 20.4653C25.9958 17.4722 23.6096 15.1027 20.5954 15.1027ZM20.5954 23.9572C18.7115 23.9572 17.0788 22.4607 17.0788 20.4653C17.0788 18.5946 18.5859 16.9734 20.5954 16.9734C22.4793 16.9734 24.112 18.4699 24.112 20.4653C24.112 22.336 22.4793 23.9572 20.5954 23.9572Z" fill="#0C0B0B"/>
<path d="M26.1214 16.2251C26.8151 16.2251 27.3773 15.6668 27.3773 14.978C27.3773 14.2893 26.8151 13.7309 26.1214 13.7309C25.4278 13.7309 24.8655 14.2893 24.8655 14.978C24.8655 15.6668 25.4278 16.2251 26.1214 16.2251Z" fill="#0C0B0B"/>
<path d="M41.4865 21.109C41.4865 32.2051 32.4268 41.2063 21.2436 41.2063C10.0605 41.2063 1.00073 32.2051 1.00073 21.109C1.00073 10.0128 10.0605 1.0116 21.2436 1.0116C32.4268 1.0116 41.4865 10.0128 41.4865 21.109Z" stroke="#66A1F6"/>
</svg>
